<?xml version="1.0" encoding="utf-8"?>
<!-- Generator: Adobe Illustrator 18.0.0, SVG Export Plug-In . SVG Version: 6.00 Build 0)  -->
<!DOCTYPE svg PUBLIC "-//W3C//DTD SVG 1.1//EN" "http://www.w3.org/Graphics/SVG/1.1/DTD/svg11.dtd">
<svg version="1.1" id="Domain_Checker_2_" xmlns="http://www.w3.org/2000/svg" xmlns:xlink="http://www.w3.org/1999/xlink" x="0px"
	 y="0px" viewBox="0 0 300 300" enable-background="new 0 0 300 300" xml:space="preserve">
<g>
	<path fill="#1E2430" d="M246.4,235.2c-53.3,30.8-139.6,30.8-192.9,0s-53.3-80.5,0-111.3s139.6-30.8,192.9,0
		S299.8,204.5,246.4,235.2z"/>
	<path fill="#323A4F" d="M246.4,238.7c-53.3,30.8-139.6,30.8-192.9,0s-53.3-80.5,0-111.3s139.6-30.8,192.9,0S299.8,208,246.4,238.7z
		"/>
	<g>
		<path fill="#323A4F" d="M153.2,47.4c-0.9-5.3-3.2-9.2-5.9-9.2c-1.8,0-3.4,1.7-4.6,4.4c-0.2-0.1-0.2-0.1-0.4-0.1
			c-2.3,0-4.1,4.1-4.1,9.1c0,0.8,0.1,1.6,0.2,2.4c-1.5,3.4-2.3,7.7-2.3,12.6c0,10.7,4.4,19.3,9.7,19.3c1.6,0,3.1-0.8,4.4-2.1
			c0.5,0.2,0.9,0.2,1.4,0.2c4.7,0,8.5-8.4,8.5-18.6C159.8,56.6,157,49.2,153.2,47.4z"/>
		<g>
			<g enable-background="new    ">
				<g>
					<g>
						<path id="SVGID_1_" fill="#323A4F" d="M154.5,63.5l0.7-0.6c0.3-0.3,0.7-0.5,1.1-0.6l-0.8,0.7
							C155.1,63.1,154.8,63.3,154.5,63.5z"/>
					</g>
					<g>
						<g>
							<g>
								<g>
									<g>
										<g>
											<path id="SVGID_2_" fill="#323A4F" d="M154.5,63.5l0.7-0.6c0.3-0.3,0.7-0.5,1.1-0.6l-0.8,0.7
												C155.1,63.1,154.8,63.3,154.5,63.5z"/>
										</g>
										<g>
											<g>
												<defs>
													<path id="SVGID_4_" d="M154.5,63.5l0.7-0.6c0.3-0.3,0.7-0.5,1.1-0.6l-0.8,0.7C155.1,63.1,154.8,63.3,154.5,63.5z"/>
												</defs>
												<use xlink:href="#SVGID_4_"  overflow="visible" fill="#323A4F"/>
												<clipPath id="SVGID_5_">
													<use xlink:href="#SVGID_4_"  overflow="visible"/>
												</clipPath>
												<g clip-path="url(#SVGID_5_)" enable-background="new    ">
													<path fill="#323A4F" d="M154.5,63.5l0.7-0.6c0.3-0.3,0.7-0.5,1.1-0.6l-0.8,0.7C155.1,63.1,154.8,63.3,154.5,63.5"/>
												</g>
											</g>
										</g>
									</g>
								</g>
							</g>
						</g>
					</g>
				</g>
			</g>
			<g>
				<path fill="#323A4F" d="M159.7,56.2c2.4-0.6,4.8,1.4,6.1,4.9c0.8-0.8,1.7-1.3,2.8-1.4c3.1-0.2,6.1,2.9,6.3,7.2
					c0,0.1,0,0.2,0,0.2c4,2.2,7.4,7.2,7.6,12.6c0.4,7.4-5,10.2-10.5,7l-15.9-9.2c-1.9-1.1-3.3-4.8-3.3-8.2c-0.1-3.2,1.1-5.8,2.7-6.2
					C155.9,59.6,157.4,56.8,159.7,56.2z"/>
			</g>
		</g>
		<path fill="#FDC830" stroke="#FFFFFF" stroke-width="1.0124" stroke-miterlimit="10" d="M151.9,47.5c-0.9-5.3-3.2-9.2-5.9-9.2
			c-1.8,0-3.4,1.7-4.6,4.4c-0.2-0.1-0.2-0.1-0.4-0.1c-2.3,0-4.1,4.1-4.1,9.1c0,0.8,0.1,1.6,0.2,2.4c-1.5,3.4-2.3,7.7-2.3,12.6
			c0,10.7,4.4,19.3,9.7,19.3c1.6,0,3.1-0.8,4.4-2.1c0.5,0.2,0.9,0.2,1.4,0.2c4.7,0,8.5-8.4,8.5-18.6
			C158.5,56.7,155.7,49.3,151.9,47.5z"/>
		<g>
			<g enable-background="new    ">
				<g>
					<g>
						<g>
							<g>
								<g>
									<g>
										<g>
											<path id="SVGID_6_" fill="#FFFFFF" stroke="#FDC830" stroke-width="1.0124" stroke-miterlimit="10" d="M153.2,64.5
												l0.7-0.6c0.3-0.3,0.7-0.5,1.1-0.6l-0.8,0.7C153.8,64.1,153.5,64.3,153.2,64.5z"/>
										</g>
										<g>
											<g>
												<defs>
													<path id="SVGID_7_" d="M153.2,64.5l0.7-0.6c0.3-0.3,0.7-0.5,1.1-0.6l-0.8,0.7C153.8,64.1,153.5,64.3,153.2,64.5z"/>
												</defs>
												<use xlink:href="#SVGID_7_"  overflow="visible" fill="#FFFFFF"/>
												<clipPath id="SVGID_8_">
													<use xlink:href="#SVGID_7_"  overflow="visible"/>
												</clipPath>
												<g clip-path="url(#SVGID_8_)" enable-background="new    ">
													<path fill="#FFFFFF" stroke="#FDC830" stroke-width="1.0124" stroke-miterlimit="10" d="M153.2,64.5l0.7-0.6
														c0.3-0.3,0.7-0.5,1.1-0.6l-0.8,0.7C153.8,64.1,153.5,64.3,153.2,64.5"/>
												</g>
												
													<use xlink:href="#SVGID_7_"  overflow="visible" fill="none" stroke="#FDC830" stroke-width="1.0124" stroke-miterlimit="10"/>
											</g>
										</g>
										<g>
											<path id="SVGID_3_" fill="#FFFFFF" stroke="#FDC830" stroke-width="1.0124" stroke-miterlimit="10" d="M153.2,64.5
												l0.7-0.6c0.3-0.3,0.7-0.5,1.1-0.6l-0.8,0.7C153.8,64.1,153.5,64.3,153.2,64.5z"/>
										</g>
									</g>
								</g>
							</g>
						</g>
					</g>
				</g>
			</g>
			<g>
				<path fill="#FFFFFF" stroke="#FDC830" stroke-width="1.0124" stroke-miterlimit="10" d="M158.4,57.2c2.4-0.6,4.8,1.4,6.1,4.9
					c0.8-0.8,1.7-1.3,2.8-1.4c3.1-0.2,6.1,2.9,6.3,7.2c0,0.1,0,0.2,0,0.2c4,2.2,7.4,7.2,7.6,12.6c0.4,7.4-5,10.2-10.5,7l-15.9-9.2
					c-1.9-1.1-3.3-4.8-3.3-8.2c-0.1-3.2,1.1-5.8,2.7-6.2C154.5,60.6,156.1,57.8,158.4,57.2z"/>
			</g>
		</g>
		<path fill="#FDC830" d="M115.4,149.6l121.1,70.1c2.3,1.3,5.2-0.3,5.2-3V123c0-2.5-1.3-4.8-3.4-6L117.1,46.9
			c-2.3-1.3-5.2,0.3-5.2,3v93.8C111.9,146.1,113.2,148.4,115.4,149.6z"/>
		<path fill="#FFFFFF" stroke="#1E2430" stroke-width="2.0249" stroke-miterlimit="10" d="M111.9,150.5L233,220.6
			c2.3,1.3,5.2-0.3,5.2-3v-93.8c0-2.5-1.3-4.8-3.4-6L113.7,47.8c-2.3-1.3-5.2,0.3-5.2,3v93.8C108.5,147,109.8,149.3,111.9,150.5z"/>
		<polygon fill="#F4F4F4" points="228.1,121.6 136.9,68.9 136.9,74.7 228.1,127.3 		"/>
		
			<ellipse transform="matrix(0.1645 0.9864 -0.9864 0.1645 157.5431 -63.0461)" fill="#F4256A" cx="116" cy="61.5" rx="3.8" ry="2.2"/>
		
			<ellipse transform="matrix(0.1645 0.9864 -0.9864 0.1645 167.0295 -66.5729)" fill="#FFDE39" cx="122.8" cy="65.3" rx="3.8" ry="2.2"/>
		
			<ellipse transform="matrix(0.1645 0.9864 -0.9864 0.1645 177.2421 -70.341)" fill="#3AEF83" cx="130.1" cy="69.5" rx="3.8" ry="2.2"/>
		<path fill="#FDC830" d="M182.5,201.2l29,18.9c1,0.6,4.4,3,5.8-0.9V179c0-1.1-0.6-2.1-1.5-2.6l-32.6-19.2c-1-0.6-4.1,0.8-4.1,1.9
			l1.9,39.4C181,199.7,181.6,200.6,182.5,201.2z"/>
		<path fill="#323A4F" d="M226.2,149.4l-99.9-57.8c-0.6-0.3-1.2,0.1-1.2,0.7V103c0,0.6,0.3,1.1,0.8,1.5l99.8,57.7
			c0.6,0.3,1.2-0.1,1.2-0.7v-10.6C227.1,150.3,226.7,149.7,226.2,149.4z"/>
		<polygon fill="#323A4F" points="136.9,134.3 136.9,136.5 155.5,147.2 155.5,145 		"/>
		<polygon fill="#FDC830" points="136.9,142.1 136.9,144.2 143.7,148.3 143.7,146.1 		"/>
		<polygon fill="#FDC830" points="172,162.7 172,164.8 178.8,168.8 178.8,166.7 		"/>
		<polygon fill="#F37335" points="136.9,126.5 136.9,128.6 155.5,139.4 155.5,137.1 		"/>
		<polygon fill="#F37335" points="160.8,139.9 160.8,142.1 179.4,152.8 179.4,150.6 		"/>
		<polygon fill="#323A4F" points="160.8,148.5 160.8,150.7 179.4,161.4 179.4,159.3 		"/>
		
			<ellipse transform="matrix(0.1645 0.9864 -0.9864 0.1645 232.9004 -9.0913)" fill="#323A4F" cx="121.8" cy="132.9" rx="11.9" ry="7"/>
		<path fill="#FFFFFF" stroke="#1E2430" stroke-width="1.0124" stroke-miterlimit="10" d="M180.5,201.8l32.7,19.2
			c1,0.6,2.2-0.2,2.2-1.3v-40.1c0-1.1-0.6-2.1-1.5-2.6l-32.7-19.2c-1-0.6-2.2,0.2-2.2,1.3v40.1C179.1,200.3,179.6,201.2,180.5,201.8
			z"/>
		<polygon fill="#FDC830" points="136.9,83.6 136.9,88 174.3,109.6 174.3,105.3 		"/>
		<polygon fill="#FDC830" points="190.7,115.2 190.7,119.5 228.1,141.1 228.1,136.8 		"/>
		<g>
			<path fill="#FFFFFF" d="M128.3,97.4l0.6,2.8c0.2,0.6,0.2,1.1,0.3,1.7h0.1c0.1-0.4,0.2-0.8,0.4-1.2l0.8-2l0.7,0.4l0.7,2.8
				c0.2,0.7,0.2,1.2,0.4,1.8h0.1c0.1-0.5,0.2-0.8,0.4-1.3l0.7-2l0.8,0.5l-1.5,3.8l-0.8-0.4l-0.7-2.6c-0.2-0.6-0.2-1.1-0.4-1.8l0,0
				c-0.2,0.5-0.2,0.9-0.5,1.3l-0.8,1.8l-0.8-0.4l-1.4-5.4L128.3,97.4z"/>
			<path fill="#FFFFFF" d="M135.3,101.3l0.5,2.7c0.2,0.6,0.2,1.1,0.3,1.6h0.1c0.2-0.4,0.2-0.8,0.5-1.2l0.8-1.9l0.7,0.4l0.6,2.7
				c0.2,0.6,0.2,1.2,0.4,1.7h0.1c0.1-0.4,0.2-0.8,0.4-1.3l0.7-1.9l0.8,0.5l-1.6,3.8l-0.7-0.4l-0.6-2.5c-0.2-0.6-0.2-1.1-0.4-1.8l0,0
				c-0.2,0.5-0.2,0.9-0.5,1.3l-0.8,1.8l-0.8-0.4l-1.2-5.4L135.3,101.3z"/>
			<path fill="#FFFFFF" d="M142.2,105.2l0.5,2.6c0.1,0.6,0.2,1.1,0.2,1.6h0.1c0.2-0.4,0.2-0.8,0.5-1.2l0.8-1.9l0.7,0.4l0.6,2.6
				c0.2,0.6,0.2,1.1,0.3,1.6h0.1c0.1-0.4,0.2-0.8,0.4-1.2l0.8-1.9l0.8,0.5l-1.6,3.6l-0.7-0.4l-0.6-2.5c-0.2-0.6-0.2-1.1-0.3-1.7l0,0
				c-0.2,0.5-0.3,0.9-0.5,1.2l-0.8,1.8l-0.7-0.4l-1.1-5.2L142.2,105.2z"/>
			<path fill="#FFFFFF" d="M147.8,112.4c0-0.4,0.2-0.5,0.6-0.2c0.3,0.2,0.5,0.5,0.5,0.8c0,0.3-0.2,0.5-0.6,0.2
				C147.9,113.1,147.7,112.7,147.8,112.4z"/>
		</g>
		<polygon fill="#323A4F" points="179.4,173.3 179.4,186.7 215,207.1 215,193.9 		"/>
		<g>
			<path fill="#323A4F" d="M184.4,171.9c0-0.4,0.2-0.6,0.6-0.4s0.6,0.6,0.6,1.1c0,0.4-0.2,0.6-0.6,0.4
				C184.7,172.7,184.4,172.3,184.4,171.9z"/>
			<path fill="#323A4F" d="M190.4,175.6c-0.2,0-0.8-0.2-1.5-0.5c-1.5-0.8-2.5-2.5-2.5-4.1c0-1.7,1.1-2.2,2.7-1.4
				c0.5,0.3,1,0.7,1.3,1l-0.2,0.7c-0.2-0.2-0.6-0.6-1.1-0.8c-1.1-0.7-1.8-0.1-1.8,1.1c0,1.2,0.8,2.5,1.8,3c0.5,0.3,0.9,0.4,1.1,0.4
				L190.4,175.6z"/>
			<path fill="#323A4F" d="M196,176.2c0,2-1.3,2.1-2.5,1.5c-1.4-0.8-2.5-2.5-2.5-4.1c0-1.8,1.1-2.2,2.5-1.5
				C195,172.9,196,174.6,196,176.2z M191.9,174c0,1.2,0.6,2.5,1.5,3c0.9,0.5,1.5,0,1.5-1.2c0-0.9-0.5-2.4-1.5-2.9
				C192.4,172.2,191.9,172.9,191.9,174z"/>
			<path fill="#323A4F" d="M197.2,175.6c0-0.6,0-1-0.1-1.5l0.8,0.5l0.1,0.9h0.1c0.2-0.4,0.8-0.6,1.6-0.1c0.7,0.4,1.2,1.1,1.5,1.9
				l0,0c0.2-0.2,0.4-0.4,0.6-0.4c0.3-0.1,0.7,0,1.1,0.2c0.7,0.4,1.7,1.4,1.7,3.3v3.2l-0.9-0.5v-3.1c0-1.1-0.4-1.9-1.1-2.3
				c-0.5-0.3-0.9-0.2-1.1,0.2c-0.1,0.2-0.1,0.2-0.1,0.5v3.4l-0.9-0.5V178c0-0.9-0.4-1.7-1.1-2.1c-0.6-0.3-1-0.1-1.1,0.4
				c-0.1,0.2-0.1,0.2-0.1,0.5v3.3l-0.9-0.5L197.2,175.6z"/>
			<path fill="#FFFFFF" d="M184.4,185.2c0-0.4,0.2-0.5,0.6-0.4c0.4,0.2,0.6,0.6,0.6,1.1c0,0.4-0.2,0.6-0.6,0.4
				S184.4,185.6,184.4,185.2z"/>
			<path fill="#FFFFFF" d="M186.8,183.2c0-0.6,0-1-0.1-1.5l0.8,0.5l0.1,0.9l0,0c0.2-0.4,0.8-0.5,1.7-0.1c0.7,0.4,1.8,1.5,1.8,3.3
				v3.2l-0.9-0.5V186c0-0.9-0.3-1.8-1.1-2.2c-0.6-0.4-1.1-0.2-1.2,0.3c-0.1,0.1-0.1,0.2-0.1,0.5v3.2l-0.9-0.5L186.8,183.2z"/>
			<path fill="#FFFFFF" d="M193.1,188.3c0,1.3,0.8,2.4,1.8,2.9c0.7,0.4,1.1,0.5,1.4,0.5l0.2,0.8c-0.3-0.1-0.9-0.2-1.7-0.6
				c-1.5-0.9-2.5-2.5-2.5-4.1c0-1.6,0.9-2.4,2.4-1.5c1.7,0.9,2.1,2.8,2.1,3.8c0,0.2,0,0.4-0.1,0.5L193.1,188.3z M195.8,189.1
				c0-0.6-0.2-1.8-1.3-2.4c-0.9-0.5-1.3,0.2-1.4,0.8L195.8,189.1z"/>
			<path fill="#FFFFFF" d="M199,187.2v1.5l1.3,0.8v0.8l-1.3-0.8v2.9c0,0.7,0.2,1.1,0.7,1.5c0.2,0.2,0.5,0.2,0.5,0.2l0.1,0.8
				c-0.2-0.1-0.5-0.2-0.8-0.4c-0.5-0.2-0.8-0.6-1-1c-0.2-0.5-0.4-1-0.4-1.6v-3l-0.8-0.5v-0.8l0.8,0.5v-1.3L199,187.2z"/>
			<path fill="#323A4F" d="M184.4,198.6c0-0.4,0.2-0.5,0.6-0.4c0.4,0.2,0.6,0.7,0.6,1.1s-0.2,0.6-0.6,0.4
				C184.7,199.4,184.4,198.9,184.4,198.6z"/>
			<path fill="#323A4F" d="M187.8,194.2c0,0.4-0.2,0.5-0.6,0.2c-0.3-0.2-0.5-0.6-0.5-0.9c0-0.4,0.2-0.5,0.6-0.2
				C187.6,193.5,187.8,193.9,187.8,194.2z M186.8,200.5v-5.4l0.9,0.5v5.4L186.8,200.5z"/>
			<path fill="#323A4F" d="M189.2,198c0-0.6,0-1-0.1-1.5l0.8,0.5l0.1,0.9l0,0c0.2-0.4,0.8-0.5,1.7-0.1c0.7,0.4,1.8,1.5,1.8,3.3v3.2
				l-0.9-0.5v-3.1c0-0.9-0.3-1.8-1.1-2.2c-0.6-0.4-1.1-0.2-1.2,0.2c-0.1,0.1-0.1,0.2-0.1,0.4v3.2l-0.9-0.5L189.2,198z"/>
			<path fill="#323A4F" d="M195.1,205.4v-4.7l-0.7-0.4v-0.8l0.7,0.4v-0.2c0-0.8,0.2-1.4,0.6-1.5c0.4-0.2,0.8-0.1,1.2,0.2
				c0.3,0.2,0.6,0.5,0.8,0.6l-0.2,0.7c-0.2-0.2-0.3-0.3-0.6-0.5c-0.8-0.5-1,0.2-1,1v0.3l1.2,0.7v0.8l-1.2-0.7v4.7L195.1,205.4z"/>
			<path fill="#323A4F" d="M202.6,207c0,2-1.3,2.1-2.6,1.4c-1.4-0.8-2.5-2.5-2.5-4.2c0-1.8,1.1-2.2,2.5-1.4
				C201.6,203.6,202.6,205.3,202.6,207z M198.5,204.6c0,1.2,0.6,2.5,1.5,3c0.9,0.5,1.5,0.1,1.5-1.2c0-0.9-0.5-2.4-1.5-3
				C199,202.8,198.5,203.6,198.5,204.6z"/>
		</g>
		<g>
			<g>
				<path fill="#FDC830" d="M207.8,205.7l0.1-3.7c0-0.2-0.1-0.3-0.2-0.4l-1.3-0.8c-0.2-0.1-0.2-0.3-0.2-0.5l2-5.2
					c0.2-0.4,0.7-0.4,0.8,0l2.9,8.3c0.2,0.4-0.3,0.8-0.7,0.5l-0.7-0.5c-0.3-0.2-0.7,0-0.7,0.4v2.7c0,0.4-0.4,0.5-0.7,0.4l-1.1-0.7
					C207.9,205.9,207.8,205.8,207.8,205.7z"/>
				<path fill="#FDC830" d="M209.4,207.3c-0.1,0-0.3,0-0.4-0.1l-1.1-0.7c-0.3-0.3-0.5-0.5-0.5-0.8l0.1-3.7l-1.4-0.9
					c-0.3-0.1-0.4-0.6-0.3-1l2-5.2c0.1-0.3,0.4-0.5,0.8-0.5c0.3,0,0.6,0.2,0.8,0.5l2.9,8.3c0.1,0.2,0.1,0.5-0.1,0.7
					c-0.2,0.4-0.8,0.5-1.2,0.3l-0.7-0.5c-0.1,0-0.1,0-0.1,0.1v2.7C210.3,206.9,209.9,207.3,209.4,207.3z M208.2,205.7
					c0,0,0.1,0.1,0.2,0.2l1,0.6l0,0c0.1,0,0.1,0,0.1-0.1v-2.7c0-0.5,0.4-0.9,0.8-0.9c0.2,0,0.3,0.1,0.5,0.2l0.7,0.4l0.1,0l-2.9-8.3
					l-0.5-0.1l0.4,0.1l-2,5.2c0,0,0,0.1,0,0.1l1.3,0.8c0.2,0.1,0.4,0.4,0.4,0.7L208.2,205.7C208.2,205.7,208.2,205.7,208.2,205.7z"
					/>
			</g>
		</g>
		<g>
			<path fill="#FFFFFF" stroke="#1E2430" stroke-width="0.5062" stroke-miterlimit="10" d="M207.5,206l0.1-3.7
				c0-0.2-0.1-0.3-0.2-0.4l-1.3-0.8c-0.2-0.1-0.2-0.3-0.2-0.5l2-5.2c0.2-0.4,0.7-0.4,0.8,0l2.9,8.3c0.2,0.4-0.3,0.8-0.7,0.5
				l-0.7-0.5c-0.3-0.2-0.7,0-0.7,0.4v2.7c0,0.4-0.4,0.5-0.7,0.4l-1.1-0.7C207.6,206.3,207.5,206.1,207.5,206z"/>
		</g>
		<path fill="#FFFFFF" d="M117.9,128.9v5.4c0,0,1.8-0.9,9.3,0c0,0-5.6-2.1-8.3-2L117.9,128.9z"/>
	</g>
	<g>
		
			<linearGradient id="SVGID_9_" gradientUnits="userSpaceOnUse" x1="77.65" y1="126.3259" x2="77.65" y2="212.1259" gradientTransform="matrix(1 0 0 -1 0 300)">
			<stop  offset="0" style="stop-color:#FD980C"/>
			<stop  offset="0.457" style="stop-color:#FDC830"/>
		</linearGradient>
		<polygon fill="url(#SVGID_9_)" points="70.3,173.7 70.3,94.4 85,87.9 85,167.1 		"/>
		<polygon fill="#FDC830" points="54.8,166.5 54.8,87.2 69.5,80.6 69.5,159.9 		"/>
		
			<linearGradient id="SVGID_10_" gradientUnits="userSpaceOnUse" x1="62.55" y1="126.2259" x2="62.55" y2="212.8259" gradientTransform="matrix(1 0 0 -1 0 300)">
			<stop  offset="0" style="stop-color:#FD980C"/>
			<stop  offset="1" style="stop-color:#FDC830"/>
		</linearGradient>
		<polygon fill="url(#SVGID_10_)" points="54.8,166.5 54.8,87.2 70.3,94.5 70.3,173.8 		"/>
		
			<linearGradient id="SVGID_11_" gradientUnits="userSpaceOnUse" x1="54.8333" y1="212.4759" x2="84.9936" y2="212.4759" gradientTransform="matrix(1 0 0 -1 0 300)">
			<stop  offset="0" style="stop-color:#FD980C"/>
			<stop  offset="1" style="stop-color:#FDC830"/>
		</linearGradient>
		<polygon fill="url(#SVGID_11_)" points="54.8,87.2 70.3,94.5 85,88 69.5,80.6 		"/>
	</g>
	<g>
		
			<linearGradient id="SVGID_12_" gradientUnits="userSpaceOnUse" x1="54.8" y1="116.7956" x2="54.8" y2="172.5956" gradientTransform="matrix(1 0 0 -1 0 300)">
			<stop  offset="0" style="stop-color:#D45011"/>
			<stop  offset="0.457" style="stop-color:#FF8245"/>
		</linearGradient>
		<polygon fill="url(#SVGID_12_)" points="47.4,183.2 47.4,133.9 62.1,127.4 62.1,176.6 		"/>
		<polygon fill="#FF8245" points="31.9,176 31.9,126.7 46.6,120.1 46.6,169.4 		"/>
		
			<linearGradient id="SVGID_13_" gradientUnits="userSpaceOnUse" x1="39.7" y1="116.6956" x2="39.7" y2="173.2956" gradientTransform="matrix(1 0 0 -1 0 300)">
			<stop  offset="0" style="stop-color:#D45011"/>
			<stop  offset="1" style="stop-color:#FF8245"/>
		</linearGradient>
		<polygon fill="url(#SVGID_13_)" points="31.9,176 31.9,126.7 47.4,134.1 47.4,183.3 		"/>
		
			<linearGradient id="SVGID_14_" gradientUnits="userSpaceOnUse" x1="31.95" y1="172.8956" x2="62.1103" y2="172.8956" gradientTransform="matrix(1 0 0 -1 0 300)">
			<stop  offset="0" style="stop-color:#D45011"/>
			<stop  offset="0.4409" style="stop-color:#FF8245"/>
		</linearGradient>
		<polygon fill="url(#SVGID_14_)" points="31.9,126.7 47.4,134.1 62.1,127.5 46.6,120.1 		"/>
	</g>
	<g>
		<polygon fill="#323A4F" points="39.3,110.5 51.4,103.6 51.4,102.7 39.3,109.7 		"/>
		<polygon fill="#323A4F" points="43,112.2 51.4,107.4 51.4,106.5 43,111.4 		"/>
		<polygon fill="#323A4F" points="44.1,109.7 51.4,105.5 51.4,104.6 44.1,108.8 		"/>
		<polygon fill="#323A4F" points="39.3,112.5 43,110.4 43,109.5 39.3,111.6 		"/>
		<polygon fill="#323A4F" points="39.3,117.9 51.4,110.9 51.4,110.1 39.3,117 		"/>
		<polygon fill="#323A4F" points="43,119.6 51.4,114.7 51.4,113.9 43,118.8 		"/>
		<polygon fill="#323A4F" points="44.1,117.1 51.4,112.8 51.4,112 44.1,116.2 		"/>
		<polygon fill="#323A4F" points="39.3,119.8 43,117.7 43,116.8 39.3,118.9 		"/>
		<polygon fill="#323A4F" points="39.3,125.2 51.4,118.3 51.4,117.4 39.3,124.3 		"/>
		<polygon fill="#323A4F" points="43,126.9 51.4,122 51.4,121.2 43,126.1 		"/>
		<polygon fill="#323A4F" points="44.1,124.3 51.4,120.2 51.4,119.3 44.1,123.6 		"/>
		<polygon fill="#323A4F" points="39.3,127.1 43,125 43,124.2 39.3,126.3 		"/>
	</g>
	<g>
		<polygon fill="#323A4F" points="62.1,68.4 74.3,61.5 74.3,60.6 62.1,67.6 		"/>
		<polygon fill="#323A4F" points="65.8,70.1 74.3,65.3 74.3,64.4 65.8,69.3 		"/>
		<polygon fill="#323A4F" points="66.9,67.6 74.3,63.4 74.3,62.5 66.9,66.7 		"/>
		<polygon fill="#323A4F" points="62.1,70.4 65.8,68.3 65.8,67.4 62.1,69.5 		"/>
		<polygon fill="#323A4F" points="62.1,75.8 74.3,68.8 74.3,68 62.1,74.9 		"/>
		<polygon fill="#323A4F" points="65.8,77.5 74.3,72.6 74.3,71.8 65.8,76.7 		"/>
		<polygon fill="#323A4F" points="66.9,75 74.3,70.7 74.3,69.9 66.9,74.1 		"/>
		<polygon fill="#323A4F" points="62.1,77.7 65.8,75.6 65.8,74.7 62.1,76.8 		"/>
		<polygon fill="#323A4F" points="62.1,83.1 74.3,76.2 74.3,75.3 62.1,82.2 		"/>
		<polygon fill="#323A4F" points="65.8,84.8 74.3,79.9 74.3,79.1 65.8,84 		"/>
		<polygon fill="#323A4F" points="66.9,82.2 74.3,78.1 74.3,77.2 66.9,81.5 		"/>
		<polygon fill="#323A4F" points="62.1,85 65.8,82.9 65.8,82.1 62.1,84.2 		"/>
	</g>
	<polygon fill="#FFFFFF" points="77.6,176.9 123.6,204.4 126.8,202.9 80.7,175.3 	"/>
	<polygon fill="#FFFFFF" points="129.3,207.5 142.8,215.7 146,214.2 132.4,205.9 	"/>
</g>
</svg>
