<?xml version="1.0" encoding="utf-8"?>
<!-- Generator: Adobe Illustrator 18.0.0, SVG Export Plug-In . SVG Version: 6.00 Build 0)  -->
<!DOCTYPE svg PUBLIC "-//W3C//DTD SVG 1.1//EN" "http://www.w3.org/Graphics/SVG/1.1/DTD/svg11.dtd">
<svg version="1.1" id="Layer_1" xmlns="http://www.w3.org/2000/svg" xmlns:xlink="http://www.w3.org/1999/xlink" x="0px" y="0px"
	 viewBox="0 0 1200 600" enable-background="new 0 0 1200 600" xml:space="preserve">
<linearGradient id="SVGID_1_" gradientUnits="userSpaceOnUse" x1="-42.6687" y1="302.3898" x2="1244.5686" y2="302.3898">
	<stop  offset="0.385" style="stop-color:#F37335"/>
	<stop  offset="1" style="stop-color:#FDC830"/>
</linearGradient>
<path fill="url(#SVGID_1_)" d="M1244.6-54.6c0-3.7-0.5-4.9-4.7-4.9c-338,0.1-675.9,0.1-1013.9,0.1c-88.1,0-176.1,0-264.2-0.1
	c-3.4,0-4.4,0.5-4.4,4.2c0.1,238.3,0.1,476.6,0,714.9c0,3.7,0.6,4.6,4.5,4.6c216.8-0.1,433.6-0.1,650.4-0.1
	c0.7-15.2-0.1-30.4-0.5-45.6c-0.7-26.5-1.4-53,2.4-79.3c5.2-36.2,19.7-67.4,48.5-91c12.6-10.3,27.1-17,42.6-21.4
	c1-0.3,2-0.7,3.1-1.1c14.4-3.4,28.9-6.7,43.6-8.6c19.9-2.5,39.7-5.6,59.5-8.3c80.7-11.2,158.9-31.3,232.5-67.1
	c25.1-12.2,49.8-25.3,74.3-38.7c22.7-12.5,44.5-26.2,65.1-41.9c9.7-7.4,18.9-15.4,27.8-23.8c11.6-10.8,21.9-22.7,31.9-34.9
	c0.4-0.4,0.9-0.7,1.4-1C1244.5,116.2,1244.5,30.8,1244.6-54.6z"/>
</svg>
