<?xml version="1.0" encoding="utf-8"?>
<!-- Generator: Adobe Illustrator 18.0.0, SVG Export Plug-In . SVG Version: 6.00 Build 0)  -->
<!DOCTYPE svg PUBLIC "-//W3C//DTD SVG 1.1//EN" "http://www.w3.org/Graphics/SVG/1.1/DTD/svg11.dtd">
<svg version="1.1" id="Layer_1" xmlns="http://www.w3.org/2000/svg" xmlns:xlink="http://www.w3.org/1999/xlink" x="0px" y="0px"
	 viewBox="0 0 300 300" enable-background="new 0 0 300 300" xml:space="preserve">
<g>
	<path fill="#F37335" d="M124.2,197.1c-3.3,6-8.1,10.8-14.1,14.1s-12.9,5.1-20.7,5.1s-14.7-1.8-20.7-5.1s-10.8-8.1-14.1-14.1
		s-5.1-12.9-5.1-20.7c0-2.7,0.9-4.5,2.4-6.3c1.8-1.5,3.6-2.4,6-2.4s4.5,0.9,6.3,2.4c1.5,1.5,2.4,3.6,2.4,6.3
		c0,7.2,2.1,12.9,6.3,17.4c4.2,4.5,9.6,6.9,16.2,6.9s12-2.4,16.2-6.9s6.3-10.2,6.3-17.4V93.9c0-2.4,0.9-4.5,2.4-6.3
		c1.5-1.5,3.6-2.4,6-2.4c2.4,0,4.5,0.9,6.3,2.4c1.8,1.5,2.4,3.6,2.4,6.3v82.8C129.3,184.2,127.8,191.1,124.2,197.1z"/>
	<path fill="#F37335" d="M230.1,89.4c6.6,3.9,12,9.3,16.5,16.5c1.2,2.1,2.1,4.2,2.1,6c0,2.4-1.2,4.5-3.3,6c-1.2,0.9-2.7,1.2-4.2,1.2
		c-1.8,0-3.3-0.3-4.5-1.2c-1.5-0.9-2.7-2.1-3.3-3.3c-3-5.1-6.6-8.7-11.1-11.4c-4.5-2.7-10.2-3.9-17.1-3.9c-8.4,0-15.3,1.5-20.4,4.8
		c-5.1,3.3-7.8,8.1-7.8,14.1c0,5.7,2.4,10.5,6.9,14.4s12.9,6.3,24.9,7.5c13.2,1.2,23.7,5.4,30.9,12s10.8,15.6,10.8,26.4
		c0,8.1-2.1,14.7-6.6,20.4c-4.2,5.7-9.9,9.9-17.1,12.9c-7.2,2.7-14.7,4.2-23.1,4.2c-10.8,0-20.4-2.4-29.4-7.2
		c-8.7-4.8-14.7-11.1-18.3-19.2c-0.6-1.2-0.9-2.4-0.9-3.3c0-1.8,0.6-3,1.8-4.5s3-2.1,5.1-2.7c0.3,0,0.9-0.3,1.8-0.3
		c1.8,0,3.6,0.6,5.1,1.5c1.5,1.2,2.7,2.4,3.6,4.2c2.1,4.2,6,8.1,11.7,10.8c5.7,2.7,12.3,4.5,19.5,4.5c8.4,0,15.3-1.8,21-5.7
		c5.7-3.9,8.7-9,8.7-15.6c0-6.3-2.4-11.7-7.2-16.2s-12.3-7.2-22.2-8.1c-13.8-1.2-24.6-5.4-32.4-12c-7.8-6.6-11.7-15-11.7-25.2
		c0-7.2,2.1-13.2,6-18.3c3.9-5.1,9.6-9,16.5-11.7c6.9-2.7,15-4.2,23.7-4.2C215.4,83.7,223.5,85.5,230.1,89.4z"/>
</g>
</svg>
